<svg width="238" height="238" viewBox="0 0 238 238" fill="none" xmlns="http://www.w3.org/2000/svg">
<path d="M212.03 118.873C212.03 170.322 170.322 212.03 118.873 212.03C67.4239 212.03 25.7161 170.322 25.7161 118.873C25.7161 67.4234 67.4239 25.7156 118.873 25.7156C170.322 25.7156 212.03 67.4234 212.03 118.873Z" fill="#007FFF"/>
<path fill-rule="evenodd" clip-rule="evenodd" d="M228.725 164.376L225.954 163.227C231.618 149.568 234.745 134.59 234.745 118.873C234.745 103.156 231.618 88.177 225.954 74.5188L228.725 73.3697C234.537 87.3857 237.745 102.755 237.745 118.873C237.745 134.991 234.537 150.36 228.725 164.376ZM164.376 9.02012L163.227 11.7913C149.568 6.1275 134.59 3 118.873 3C103.156 3 88.177 6.1275 74.5188 11.7913L73.3697 9.02012C87.3857 3.20792 102.755 0 118.873 0C134.991 0 150.36 3.20792 164.376 9.02012ZM9.02012 73.3697C3.20792 87.3857 0 102.755 0 118.873C0 134.991 3.20792 150.36 9.02012 164.376L11.7913 163.227C6.1275 149.568 3 134.59 3 118.873C3 103.156 6.1275 88.177 11.7913 74.5188L9.02012 73.3697ZM73.3697 228.725L74.5188 225.954C88.177 231.618 103.156 234.745 118.873 234.745C134.59 234.745 149.568 231.618 163.227 225.954L164.376 228.725C150.36 234.537 134.991 237.745 118.873 237.745C102.755 237.745 87.3857 234.537 73.3697 228.725Z" fill="#FFDA47"/>
</svg>
