<svg width="19" height="16" viewBox="0 0 19 16" fill="none" xmlns="http://www.w3.org/2000/svg">
<path d="M17.7249 8.93018L11.4749 15.1802C11.2405 15.4146 10.928 15.5317 10.6155 15.5317C10.2639 15.5317 9.95142 15.4146 9.71704 15.1802C9.20923 14.7114 9.20923 13.8911 9.71704 13.4224L13.8186 9.28174H1.86548C1.16235 9.28174 0.615479 8.73486 0.615479 8.03174C0.615479 7.36768 1.16235 6.78174 1.86548 6.78174H13.8186L9.71704 2.68018C9.20923 2.21143 9.20923 1.39111 9.71704 0.922363C10.1858 0.414551 11.0061 0.414551 11.4749 0.922363L17.7249 7.17236C18.2327 7.64111 18.2327 8.46143 17.7249 8.93018Z" fill="#8758FF"/>
</svg>
