<svg width="35" height="46" viewBox="0 0 35 46" fill="none" xmlns="http://www.w3.org/2000/svg">
<path d="M26.4375 31.6309C27.5801 30.9277 27.9316 28.9941 28.8984 27.9395C29.9531 26.9727 31.8867 26.709 32.5898 25.4785C33.293 24.248 32.5898 22.4023 32.9414 20.9961C33.293 19.6777 34.7871 18.4473 34.7871 16.9531C34.7871 15.5469 33.2051 14.3164 32.8535 12.998C32.502 11.5918 33.2051 9.74609 32.502 8.51562C31.7988 7.28516 29.8652 7.02148 28.8984 6.05469C27.8438 5 27.5801 3.06641 26.3496 2.36328C25.1191 1.66016 23.2734 2.36328 21.8672 2.01172C20.6367 1.66016 19.4062 0.078125 18 0.078125C16.5059 0.078125 15.2754 1.66016 13.957 2.01172C12.5508 2.36328 10.7051 1.66016 9.47461 2.36328C8.33203 3.06641 7.98047 5 7.01367 6.05469C5.95898 7.02148 4.02539 7.28516 3.32227 8.51562C2.61914 9.74609 3.32227 11.5918 2.9707 12.998C2.61914 14.3164 1.125 15.5469 1.125 16.9531C1.125 18.4473 2.61914 19.6777 2.9707 20.9961C3.32227 22.4023 2.61914 24.248 3.32227 25.4785C4.02539 26.6211 5.95898 26.9727 7.01367 27.9395C7.98047 28.9941 8.24414 30.9277 9.47461 31.6309C10.7051 32.334 12.5508 31.6309 13.957 31.9824C15.2754 32.334 16.5059 33.8281 18 33.8281C19.4062 33.8281 20.6367 32.334 21.9551 31.9824C23.3613 31.6309 25.207 32.334 26.4375 31.6309ZM10.9688 16.9531C10.9688 13.0859 14.0449 9.92188 18 9.92188C21.8672 9.92188 25.0312 13.0859 25.0312 16.9531C25.0312 20.9082 21.8672 23.9844 18 23.9844C14.0449 23.9844 10.9688 20.9082 10.9688 16.9531ZM1.21289 38.2227C0.949219 38.9258 1.03711 39.7168 1.56445 40.332C2.0918 40.9473 2.88281 41.2109 3.58594 41.0352L7.54102 40.2441L9.47461 43.9355C9.82617 44.6387 10.5293 45.0781 11.3203 45.0781C11.4082 45.0781 11.4082 45.0781 11.4082 45.0781C12.2871 45.0781 12.9902 44.5508 13.2539 43.8477L16.2422 36.6406C11.4961 36.2012 7.27734 34.0918 4.11328 31.0156L1.21289 38.2227ZM31.7988 31.0156C28.6348 34.0918 24.416 36.2012 19.6699 36.6406L22.5703 43.8477C22.9219 44.5508 23.625 45.0781 24.5039 45.166C24.5039 45.0781 24.5039 45.0781 24.5918 45.0781C25.3828 45.0781 26.0859 44.7266 26.4375 43.9355L28.3711 40.2441L32.3262 41.0352C33.0293 41.2109 33.8203 40.9473 34.3477 40.332C34.875 39.7168 34.9629 38.9258 34.6992 38.2227L31.7988 31.0156Z" fill="white"/>
</svg>
