<svg width="46" height="46" viewBox="0 0 46 46" fill="none" xmlns="http://www.w3.org/2000/svg">
<path d="M21.6855 0.623047C22.3887 0.359375 23.1797 0.359375 23.8828 0.623047L43.5703 9.06055C44.8008 9.58789 45.5039 10.9062 45.2402 12.2246C44.9766 13.543 43.834 14.4219 42.4277 14.4219V15.125C42.4277 16.3555 41.5488 17.2344 40.3184 17.2344H5.16211C4.01953 17.2344 3.05273 16.3555 3.05273 15.125V14.4219C1.73438 14.4219 0.591797 13.543 0.328125 12.2246C0.0644531 10.9062 0.767578 9.58789 1.99805 9.06055L21.6855 0.623047ZM22.8281 11.6094C24.3223 11.6094 25.6406 10.3789 25.6406 8.79688C25.6406 7.30273 24.3223 5.98438 22.8281 5.98438C21.2461 5.98438 20.0156 7.30273 20.0156 8.79688C20.0156 10.3789 21.2461 11.6094 22.8281 11.6094ZM11.4902 36.9219H15.0059V20.0469H20.6309V36.9219H24.9375V20.0469H30.5625V36.9219H34.0781V20.0469H39.7031V37.3613C39.7031 37.3613 39.791 37.3613 39.791 37.4492L44.0098 40.2617C45.0645 40.9648 45.5039 42.1953 45.1523 43.4258C44.8008 44.5684 43.7461 45.3594 42.5156 45.3594H3.05273C1.82227 45.3594 0.767578 44.5684 0.416016 43.4258C0.0644531 42.1953 0.503906 40.9648 1.55859 40.2617L5.77734 37.4492C5.77734 37.3613 5.86523 37.3613 5.86523 37.3613V20.0469H11.4902V36.9219Z" fill="#8758FF"/>
</svg>
