<svg width="41" height="46" viewBox="0 0 41 46" fill="none" xmlns="http://www.w3.org/2000/svg">
<path d="M23.1406 3.17188V4.92969C29.5566 6.24805 34.3906 11.873 34.3906 18.6406V20.3105C34.3906 24.4414 35.8848 28.4844 38.6094 31.5605L39.2246 32.2637C40.0156 33.1426 40.1914 34.2852 39.752 35.3398C39.3125 36.3066 38.2578 36.9219 37.2031 36.9219H3.45312C2.31055 36.9219 1.25586 36.3066 0.816406 35.3398C0.376953 34.2852 0.552734 33.1426 1.34375 32.2637L1.95898 31.5605C4.68359 28.4844 6.26562 24.4414 6.26562 20.3105V18.6406C6.26562 11.873 11.0117 6.24805 17.5156 4.92969V3.17188C17.5156 1.67773 18.7461 0.359375 20.3281 0.359375C21.8223 0.359375 23.1406 1.67773 23.1406 3.17188ZM20.3281 45.3594C18.834 45.3594 17.3398 44.832 16.2852 43.7773C15.2305 42.7227 14.7031 41.2285 14.7031 39.7344H25.9531C25.9531 41.2285 25.3379 42.7227 24.2832 43.7773C23.2285 44.832 21.7344 45.3594 20.3281 45.3594Z" fill="#8758FF"/>
</svg>
