<svg width="40" height="46" viewBox="0 0 40 46" fill="none" xmlns="http://www.w3.org/2000/svg">
<path d="M8.75 3.4375C8.75 1.94336 9.98047 0.625 11.5625 0.625C13.0566 0.625 14.375 1.94336 14.375 3.4375V6.25H25.625V3.4375C25.625 1.94336 26.8555 0.625 28.4375 0.625C29.9316 0.625 31.25 1.94336 31.25 3.4375V6.25H35.4688C37.7539 6.25 39.6875 8.18359 39.6875 10.4688V14.6875H0.3125V10.4688C0.3125 8.18359 2.1582 6.25 4.53125 6.25H8.75V3.4375ZM39.6875 41.4062C39.6875 43.7793 37.7539 45.625 35.4688 45.625H4.53125C2.1582 45.625 0.3125 43.7793 0.3125 41.4062V17.5H39.6875V41.4062Z" fill="#8758FF"/>
</svg>
