<svg width="45" height="41" viewBox="0 0 45 41" fill="none" xmlns="http://www.w3.org/2000/svg">
<path d="M5.625 33.2344C5.625 34.0254 6.24023 34.6406 7.03125 34.6406H42.1875C43.6816 34.6406 45 35.959 45 37.4531C45 39.0352 43.6816 40.2656 42.1875 40.2656H7.03125C3.07617 40.2656 0 37.1895 0 33.2344V3.70312C0 2.20898 1.23047 0.890625 2.8125 0.890625C4.30664 0.890625 5.625 2.20898 5.625 3.70312V33.2344ZM30.0586 22.5996C29.0039 23.7422 27.1582 23.7422 26.1035 22.5996L21.0938 17.5898L13.1836 25.4121C12.1289 26.5547 10.2832 26.5547 9.22852 25.4121C8.08594 24.3574 8.08594 22.5117 9.22852 21.457L19.0723 11.6133C20.127 10.4707 21.9727 10.4707 23.0273 11.6133L28.125 16.623L37.3535 7.39453C38.4082 6.25195 40.2539 6.25195 41.3086 7.39453C42.4512 8.44922 42.4512 10.2949 41.3086 11.3496L30.0586 22.5996Z" fill="#8758FF"/>
</svg>
