<svg width="81" height="71" viewBox="0 0 81 71" fill="none" xmlns="http://www.w3.org/2000/svg">
<path d="M10.7667 57.5317C10.7667 58.938 11.8605 60.0317 13.2667 60.0317H75.7667C78.423 60.0317 80.7667 62.3755 80.7667 65.0317C80.7667 67.8442 78.423 70.0317 75.7667 70.0317H13.2667C6.2355 70.0317 0.766747 64.563 0.766747 57.5317V5.03174C0.766747 2.37549 2.95425 0.0317383 5.76675 0.0317383C8.423 0.0317383 10.7667 2.37549 10.7667 5.03174V57.5317ZM54.2042 38.6255C52.3292 40.6567 49.048 40.6567 47.173 38.6255L38.2667 29.7192L24.2042 43.6255C22.3292 45.6567 19.048 45.6567 17.173 43.6255C15.1417 41.7505 15.1417 38.4692 17.173 36.5942L34.673 19.0942C36.548 17.063 39.8292 17.063 41.7042 19.0942L50.7667 28.0005L67.173 11.5942C69.048 9.56299 72.3292 9.56299 74.2042 11.5942C76.2355 13.4692 76.2355 16.7505 74.2042 18.6255L54.2042 38.6255Z" fill="white" fill-opacity="0.25"/>
</svg>
