<svg width="46" height="40" viewBox="0 0 46 40" fill="none" xmlns="http://www.w3.org/2000/svg">
<path d="M3.47925 0.469238C4.97339 0.469238 6.29175 1.7876 6.29175 3.28174V32.813C6.29175 33.604 6.90698 34.2192 7.698 34.2192H42.8542C44.3484 34.2192 45.6667 35.5376 45.6667 37.0317C45.6667 38.6138 44.3484 39.8442 42.8542 39.8442H7.698C3.74292 39.8442 0.666748 36.7681 0.666748 32.813V3.28174C0.666748 1.7876 1.89722 0.469238 3.47925 0.469238ZM14.7292 17.3442C16.2234 17.3442 17.5417 18.6626 17.5417 20.1567V25.7817C17.5417 27.3638 16.2234 28.5942 14.7292 28.5942C13.1472 28.5942 11.9167 27.3638 11.9167 25.7817V20.1567C11.9167 18.6626 13.1472 17.3442 14.7292 17.3442ZM25.9792 25.7817C25.9792 27.3638 24.6609 28.5942 23.1667 28.5942C21.5847 28.5942 20.3542 27.3638 20.3542 25.7817V11.7192C20.3542 10.2251 21.5847 8.90674 23.1667 8.90674C24.6609 8.90674 25.9792 10.2251 25.9792 11.7192V25.7817ZM31.6042 14.5317C33.0984 14.5317 34.4167 15.8501 34.4167 17.3442V25.7817C34.4167 27.3638 33.0984 28.5942 31.6042 28.5942C30.0222 28.5942 28.7917 27.3638 28.7917 25.7817V17.3442C28.7917 15.8501 30.0222 14.5317 31.6042 14.5317ZM42.8542 25.7817C42.8542 27.3638 41.5359 28.5942 40.0417 28.5942C38.4597 28.5942 37.2292 27.3638 37.2292 25.7817V6.09424C37.2292 4.6001 38.4597 3.28174 40.0417 3.28174C41.5359 3.28174 42.8542 4.6001 42.8542 6.09424V25.7817Z" fill="white"/>
</svg>
