<svg width="20" height="21" viewBox="0 0 20 21" fill="none" xmlns="http://www.w3.org/2000/svg">
<path d="M0 10.4458C0 4.93799 4.45312 0.445801 10 0.445801C15.5078 0.445801 20 4.93799 20 10.4458C20 15.9927 15.5078 20.4458 10 20.4458C4.45312 20.4458 0 15.9927 0 10.4458ZM14.4922 8.72705C14.9219 8.29736 14.9219 7.6333 14.4922 7.20361C14.0625 6.77393 13.3984 6.77393 12.9688 7.20361L8.75 11.4224L6.99219 9.70361C6.5625 9.27393 5.89844 9.27393 5.46875 9.70361C5.03906 10.1333 5.03906 10.7974 5.46875 11.2271L7.96875 13.7271C8.39844 14.1567 9.0625 14.1567 9.49219 13.7271L14.4922 8.72705Z" fill="#8758FF"/>
</svg>
