<svg width="20" height="20" viewBox="0 0 20 20" fill="none" xmlns="http://www.w3.org/2000/svg">
<path d="M10 -0.1875C4.64844 -0.1875 0.3125 4.14844 0.3125 9.5C0.3125 14.8516 4.64844 19.1875 10 19.1875C15.3516 19.1875 19.6875 14.8516 19.6875 9.5C19.6875 4.14844 15.3516 -0.1875 10 -0.1875ZM13.5938 12.0391L12.8125 13.0156C12.6953 13.1719 12.5391 13.2891 12.3047 13.2891C12.1875 13.2891 12.0312 13.2109 11.9531 13.1328L9.33594 11.1797C8.94531 10.9062 8.75 10.4766 8.75 9.96875V3.875C8.75 3.5625 9.02344 3.25 9.375 3.25H10.625C10.9375 3.25 11.25 3.5625 11.25 3.875V9.5L13.5156 11.1797C13.6328 11.2969 13.75 11.4531 13.75 11.6484C13.75 11.8047 13.6719 11.9609 13.5938 12.0391Z" fill="#8758FF"/>
</svg>
