<svg width="21" height="18" viewBox="0 0 21 18" fill="none" xmlns="http://www.w3.org/2000/svg">
<path d="M10.6992 0.375C5.15234 0.375 0.699219 4.00781 0.699219 8.5C0.699219 10.4141 1.55859 12.2109 2.92578 13.5781C2.45703 15.5703 0.816406 17.3281 0.816406 17.3281C0.699219 17.4062 0.699219 17.5625 0.738281 17.6797C0.777344 17.7969 0.894531 17.875 1.01172 17.875C3.62891 17.875 5.50391 16.625 6.51953 15.8438C7.80859 16.3125 9.21484 16.625 10.6992 16.625C16.2461 16.625 20.6602 12.9531 20.6602 8.5C20.6602 4.04688 16.207 0.375 10.6992 0.375ZM5.66016 9.75C4.95703 9.75 4.41016 9.16406 4.41016 8.5C4.41016 7.875 4.95703 7.25 5.66016 7.25C6.32422 7.25 6.91016 7.83594 6.91016 8.5C6.91016 9.20312 6.36328 9.75 5.66016 9.75ZM10.6992 9.75C9.99609 9.75 9.44922 9.16406 9.44922 8.5C9.44922 7.875 10.0352 7.25 10.6992 7.25C11.3242 7.25 11.9102 7.83594 11.9102 8.5C11.9102 9.20312 11.3633 9.75 10.6992 9.75ZM15.6602 9.75C14.957 9.75 14.4102 9.16406 14.4102 8.5C14.4102 7.875 14.957 7.25 15.6602 7.25C16.3242 7.25 16.9102 7.83594 16.9102 8.5C16.9102 9.20312 16.3633 9.75 15.6602 9.75Z" fill="#8758FF"/>
</svg>
