<svg width="40" height="31" viewBox="0 0 40 31" fill="none" xmlns="http://www.w3.org/2000/svg">
<path d="M35.3125 0.250488C37.7051 0.250488 39.6875 2.23291 39.6875 4.62549V6.81299H0.3125V4.62549C0.3125 2.23291 2.22656 0.250488 4.6875 0.250488H35.3125ZM39.6875 26.5005C39.6875 28.9614 37.7051 30.8755 35.3125 30.8755H4.6875C2.22656 30.8755 0.3125 28.9614 0.3125 26.5005V13.3755H39.6875V26.5005ZM7.96875 22.1255C7.35352 22.1255 6.875 22.6724 6.875 23.2192C6.875 23.8345 7.35352 24.313 7.96875 24.313H12.3438C12.8906 24.313 13.4375 23.8345 13.4375 23.2192C13.4375 22.6724 12.8906 22.1255 12.3438 22.1255H7.96875ZM16.7188 24.313H25.4688C26.0156 24.313 26.5625 23.8345 26.5625 23.2192C26.5625 22.6724 26.0156 22.1255 25.4688 22.1255H16.7188C16.1035 22.1255 15.625 22.6724 15.625 23.2192C15.625 23.8345 16.1035 24.313 16.7188 24.313Z" fill="white"/>
</svg>
