<svg width="45" height="34" viewBox="0 0 45 34" fill="none" xmlns="http://www.w3.org/2000/svg">
<path d="M40.7812 0.203125C43.0664 0.203125 45 2.13672 45 4.42188C45 5.82812 44.2969 7.05859 43.2422 7.84961L24.1699 22.1758C23.1152 22.9668 21.7969 22.9668 20.7422 22.1758L1.66992 7.84961C0.615234 7.05859 0 5.82812 0 4.42188C0 2.13672 1.8457 0.203125 4.21875 0.203125H40.7812ZM19.0723 24.4609C21.0938 25.9551 23.8184 25.9551 25.8398 24.4609L45 10.0469V28.3281C45 31.4922 42.4512 33.9531 39.375 33.9531H5.625C2.46094 33.9531 0 31.4922 0 28.3281V10.0469L19.0723 24.4609Z" fill="white"/>
</svg>
