<svg width="45" height="46" viewBox="0 0 45 46" fill="none" xmlns="http://www.w3.org/2000/svg">
<path d="M30.9375 22.5781C30.9375 24.5996 30.7617 26.4453 30.5859 28.2031H14.3262C14.1504 26.4453 13.9746 24.5996 13.9746 22.5781C13.9746 20.6445 14.1504 18.7988 14.3262 16.9531H30.5859C30.7617 18.7988 30.9375 20.6445 30.9375 22.5781ZM44.209 16.9531C44.7363 18.7988 45 20.6445 45 22.5781C45 24.5996 44.7363 26.4453 44.209 28.2031H33.3984C33.5742 26.4453 33.75 24.5117 33.75 22.5781C33.75 20.6445 33.5742 18.7988 33.3984 16.9531H44.209ZM43.3301 14.1406H33.0469C32.168 8.60352 30.4102 3.85742 28.2129 0.869141C35.0684 2.71484 40.6934 7.63672 43.3301 14.1406ZM30.2344 14.1406H14.6777C15.2051 10.9766 16.084 8.16406 17.0508 5.87891C18.0176 3.76953 18.9844 2.27539 20.0391 1.30859C21.0059 0.429688 21.7969 0.078125 22.5 0.078125C23.1152 0.078125 23.9062 0.429688 24.873 1.30859C25.9277 2.27539 26.8945 3.76953 27.8613 5.87891C28.8281 8.16406 29.707 10.9766 30.2344 14.1406ZM1.58203 14.1406C4.21875 7.63672 9.84375 2.71484 16.6992 0.869141C14.502 3.85742 12.7441 8.60352 11.8652 14.1406H1.58203ZM11.5137 16.9531C11.3379 18.7988 11.1621 20.6445 11.1621 22.5781C11.1621 24.5117 11.3379 26.4453 11.5137 28.2031H0.703125C0.175781 26.4453 0 24.5996 0 22.5781C0 20.6445 0.175781 18.7988 0.703125 16.9531H11.5137ZM17.0508 39.3652C16.084 37.0801 15.2051 34.2676 14.6777 31.0156H30.2344C29.707 34.2676 28.8281 37.0801 27.8613 39.3652C26.8945 41.4746 25.9277 42.9688 24.873 43.9355C23.9062 44.8145 23.1152 45.0781 22.4121 45.0781C21.7969 45.0781 21.0059 44.8145 20.0391 43.9355C18.9844 42.9688 18.0176 41.4746 17.0508 39.3652ZM16.6992 44.375C9.84375 42.5293 4.21875 37.6074 1.58203 31.0156H11.8652C12.7441 36.6406 14.502 41.3867 16.6992 44.375ZM28.2129 44.375C30.4102 41.3867 32.168 36.6406 33.0469 31.0156H43.3301C40.6934 37.6074 35.0684 42.5293 28.2129 44.375Z" fill="#8758FF"/>
</svg>
