<svg width="18" height="19" viewBox="0 0 18 19" fill="none" xmlns="http://www.w3.org/2000/svg">
<path d="M16.25 0.703125H1.21094C0.546875 0.703125 0 1.28906 0 1.99219V16.9531C0 17.6562 0.546875 18.2031 1.21094 18.2031H16.25C16.9141 18.2031 17.5 17.6562 17.5 16.9531V1.99219C17.5 1.28906 16.9141 0.703125 16.25 0.703125ZM5.27344 15.7031H2.69531V7.38281H5.27344V15.7031ZM3.98438 6.21094C3.125 6.21094 2.46094 5.54688 2.46094 4.72656C2.46094 3.90625 3.125 3.20312 3.98438 3.20312C4.80469 3.20312 5.46875 3.90625 5.46875 4.72656C5.46875 5.54688 4.80469 6.21094 3.98438 6.21094ZM15 15.7031H12.3828V11.6406C12.3828 10.7031 12.3828 9.45312 11.0547 9.45312C9.6875 9.45312 9.49219 10.5078 9.49219 11.6016V15.7031H6.91406V7.38281H9.375V8.51562H9.41406C9.76562 7.85156 10.625 7.14844 11.875 7.14844C14.4922 7.14844 15 8.90625 15 11.1328V15.7031Z" fill="#8758FF"/>
</svg>
