<svg width="27" height="46" viewBox="0 0 27 46" fill="none" xmlns="http://www.w3.org/2000/svg">
<path d="M26.125 13.2812C26.125 20.3125 20.4121 25.9375 13.4688 25.9375C6.4375 25.9375 0.8125 20.3125 0.8125 13.2812C0.8125 6.33789 6.4375 0.625 13.4688 0.625C20.4121 0.625 26.125 6.33789 26.125 13.2812ZM14.875 6.25C14.875 5.54688 14.1719 4.84375 13.4688 4.84375C8.72266 4.84375 5.03125 8.62305 5.03125 13.2812C5.03125 14.0723 5.64648 14.6875 6.4375 14.6875C7.14062 14.6875 7.84375 14.0723 7.84375 13.2812C7.84375 10.2051 10.3047 7.65625 13.4688 7.65625C14.1719 7.65625 14.875 7.04102 14.875 6.25ZM10.6562 42.8125V28.5742C11.5352 28.6621 12.502 28.75 13.4688 28.75C14.3477 28.75 15.3145 28.6621 16.2812 28.5742V42.8125C16.2812 44.3945 14.9629 45.625 13.4688 45.625C11.8867 45.625 10.6562 44.3945 10.6562 42.8125Z" fill="#8758FF"/>
</svg>
