<svg width="20" height="20" viewBox="0 0 20 20" fill="none" xmlns="http://www.w3.org/2000/svg">
<path d="M19.4141 13.6406L15.0391 11.7656C14.9219 11.7266 14.8047 11.6875 14.6484 11.6875C14.375 11.6875 14.1016 11.8438 13.9453 12.0391L11.9922 14.4219C8.94531 12.9766 6.52344 10.5547 5.07812 7.50781L7.46094 5.55469C7.65625 5.39844 7.8125 5.125 7.8125 4.8125C7.8125 4.69531 7.77344 4.57812 7.73438 4.46094L5.85938 0.0859375C5.70312 -0.265625 5.35156 -0.5 4.96094 -0.5C4.92188 -0.5 4.84375 -0.460938 4.76562 -0.460938L0.703125 0.476562C0.273438 0.59375 0 0.945312 0 1.375C0 11.4141 8.08594 19.5 18.125 19.5C18.5547 19.5 18.9062 19.2266 19.0234 18.7969L19.9609 14.7344C19.9609 14.6562 19.9609 14.5781 19.9609 14.5391C19.9609 14.1484 19.7266 13.7969 19.4141 13.6406Z" fill="#8758FF"/>
</svg>
