<svg width="40" height="40" viewBox="0 0 40 40" fill="none" xmlns="http://www.w3.org/2000/svg">
<path d="M33.75 0.4375H5.625C2.46094 0.4375 0 2.98633 0 6.0625V34.1875C0 37.3516 2.46094 39.8125 5.625 39.8125H33.75C36.8262 39.8125 39.375 37.3516 39.375 34.1875V6.0625C39.375 2.98633 36.8262 0.4375 33.75 0.4375ZM30.8496 25.9258L29.7949 30.3203C29.707 31.0234 29.1797 31.375 28.4766 31.375C17.4023 31.375 8.4375 22.4102 8.4375 11.3359C8.4375 10.6328 8.87695 10.1055 9.49219 9.92969L13.8867 8.96289C14.502 8.78711 15.2051 9.13867 15.4688 9.75391L17.4902 14.5C17.7539 15.1152 17.5781 15.7305 17.1387 16.082L14.7656 18.0156C16.2598 21.0918 18.7207 23.5527 21.7969 25.0469L23.7305 22.6738C24.082 22.2344 24.6973 22.0586 25.3125 22.3223L30.0586 24.3438C30.6738 24.6074 31.0254 25.3105 30.8496 25.9258Z" fill="#8758FF"/>
</svg>
