<svg width="52" height="46" viewBox="0 0 52 46" fill="none" xmlns="http://www.w3.org/2000/svg">
<path d="M35.6719 8.79688L35.584 8.88477C35.1445 8.88477 34.7051 8.79688 34.2656 8.79688H23.0156C21.5215 8.79688 20.1152 9.06055 18.7969 9.32422C18.7969 9.14844 18.7969 9.06055 18.7969 8.79688C18.7969 4.13867 22.4883 0.359375 27.2344 0.359375C31.8926 0.359375 35.6719 4.13867 35.6719 8.79688ZM34.2656 11.6094C34.5293 11.6094 34.793 11.6973 35.1445 11.6973C35.4961 11.6973 35.8477 11.6973 36.2871 11.7852C37.7812 10.0273 40.0664 8.79688 42.7031 8.79688H45.5156L43.8457 15.4766C45.252 16.707 46.3066 18.2891 47.0977 20.0469H48.3281C49.8223 20.0469 51.1406 21.3652 51.1406 22.8594V31.2969C51.1406 32.8789 49.8223 34.1094 48.3281 34.1094H45.5156C44.6367 35.252 43.7578 36.1309 42.7031 36.9219V42.5469C42.7031 44.1289 41.3848 45.3594 39.8906 45.3594H37.0781C35.4961 45.3594 34.2656 44.1289 34.2656 42.5469V39.7344H23.0156V42.5469C23.0156 44.1289 21.6973 45.3594 20.2031 45.3594H17.3906C15.8086 45.3594 14.5781 44.1289 14.5781 42.5469V36.9219C11.502 34.6367 9.39258 31.1211 8.95312 27.0781H6.49219C3.15234 27.0781 0.515625 24.4414 0.515625 21.1016C0.515625 17.8496 3.15234 15.125 6.49219 15.125H6.84375C7.98633 15.125 8.95312 16.0918 8.95312 17.2344C8.95312 18.4648 7.98633 19.3438 6.84375 19.3438H6.49219C5.4375 19.3438 4.73438 20.1348 4.73438 21.1016C4.73438 22.0684 5.4375 22.8594 6.49219 22.8594H9.2168C10.2715 17.6738 14.2266 13.4551 19.4121 12.1367C20.5547 11.7852 21.6973 11.6094 23.0156 11.6094H34.2656ZM37.7812 21.4531C36.5508 21.4531 35.6719 22.4199 35.6719 23.5625C35.6719 24.793 36.5508 25.6719 37.7812 25.6719C38.9238 25.6719 39.8906 24.793 39.8906 23.5625C39.8906 22.4199 38.9238 21.4531 37.7812 21.4531Z" fill="white"/>
</svg>
