<svg width="40" height="29" viewBox="0 0 40 29" fill="none" xmlns="http://www.w3.org/2000/svg">
<path d="M8.75 11.7188C7.69531 11.7188 6.81641 11.9824 5.9375 12.2461V11.7188C5.9375 8.64258 8.39844 6.09375 11.5625 6.09375C13.0566 6.09375 14.375 4.86328 14.375 3.28125C14.375 1.78711 13.0566 0.46875 11.5625 0.46875C5.32227 0.46875 0.3125 5.56641 0.3125 11.7188V20.1562C0.3125 24.9023 4.00391 28.5938 8.75 28.5938C13.4082 28.5938 17.1875 24.9023 17.1875 20.1562C17.1875 15.498 13.4082 11.7188 8.75 11.7188ZM31.25 11.7188C30.1953 11.7188 29.3164 11.9824 28.4375 12.2461V11.7188C28.4375 8.64258 30.8984 6.09375 34.0625 6.09375C35.5566 6.09375 36.875 4.86328 36.875 3.28125C36.875 1.78711 35.5566 0.46875 34.0625 0.46875C27.8223 0.46875 22.8125 5.56641 22.8125 11.7188V20.1562C22.8125 24.9023 26.5039 28.5938 31.25 28.5938C35.9082 28.5938 39.6875 24.9023 39.6875 20.1562C39.6875 15.498 35.9082 11.7188 31.25 11.7188Z" fill="#8758FF"/>
</svg>
