<svg width="25" height="25" viewBox="0 0 25 25" fill="none" xmlns="http://www.w3.org/2000/svg">
<path d="M23.6719 21.2656L18.9844 16.5781C18.75 16.3906 18.4688 16.25 18.1875 16.25H17.4375C18.7031 14.6094 19.5 12.5469 19.5 10.25C19.5 4.90625 15.0938 0.5 9.75 0.5C4.35938 0.5 0 4.90625 0 10.25C0 15.6406 4.35938 20 9.75 20C12 20 14.0625 19.25 15.75 17.9375V18.7344C15.75 19.0156 15.8438 19.2969 16.0781 19.5312L20.7188 24.1719C21.1875 24.6406 21.8906 24.6406 22.3125 24.1719L23.625 22.8594C24.0938 22.4375 24.0938 21.7344 23.6719 21.2656ZM9.75 16.25C6.42188 16.25 3.75 13.5781 3.75 10.25C3.75 6.96875 6.42188 4.25 9.75 4.25C13.0312 4.25 15.75 6.96875 15.75 10.25C15.75 13.5781 13.0312 16.25 9.75 16.25Z" fill="white"/>
</svg>
