<svg width="20" height="21" viewBox="0 0 20 21" fill="none" xmlns="http://www.w3.org/2000/svg">
<path d="M10.1 0.5C10.2563 0.5 10.4516 0.578125 10.6078 0.617188L17.9516 3.74219C18.8109 4.13281 19.475 4.95312 19.475 5.96875C19.4359 9.875 17.8344 16.9453 11.1156 20.1875C10.4516 20.5 9.70938 20.5 9.04531 20.1875C2.32656 16.9453 0.725 9.875 0.685938 5.96875C0.685938 4.95312 1.35 4.13281 2.20938 3.74219L9.55313 0.617188C9.70938 0.578125 9.90469 0.5 10.1 0.5ZM10.1 17.8828C15.4516 15.2656 16.9359 9.52344 16.975 6.04688L10.1 3.11719V17.8828Z" fill="white"/>
</svg>
