<svg width="101" height="80" viewBox="0 0 101 80" fill="none" xmlns="http://www.w3.org/2000/svg">
<path d="M0.0999985 24.375C0.0999985 23.125 0.412498 22.0312 1.0375 21.0938L12.7562 3.4375C14.1625 1.40625 16.5062 0 19.0062 0H81.0375C83.5375 0 85.8812 1.40625 87.2875 3.4375L99.0062 21.0938C99.6312 22.0312 100.1 23.125 100.1 24.375C100.1 27.5 97.4437 30 94.3187 30H5.725C2.6 30 0.0999985 27.5 0.0999985 24.375ZM10.1 35H20.1V60H50.1V35H60.1V72.5C60.1 76.7188 56.6625 80 52.6 80H17.6C13.3812 80 10.1 76.7188 10.1 72.5V35ZM80.1 35H90.1V75C90.1 77.8125 87.7562 80 85.1 80C82.2875 80 80.1 77.8125 80.1 75V35Z" fill="#5CB8E4" fill-opacity="0.25"/>
</svg>
