<svg width="20" height="17" viewBox="0 0 20 17" fill="none" xmlns="http://www.w3.org/2000/svg">
<path d="M17.9297 4.39062C17.9297 4.58594 17.9297 4.74219 17.9297 4.9375C17.9297 10.3672 13.8281 16.5781 6.28906 16.5781C3.94531 16.5781 1.79688 15.9141 0 14.7422C0.3125 14.7812 0.625 14.8203 0.976562 14.8203C2.89062 14.8203 4.64844 14.1562 6.05469 13.0625C4.25781 13.0234 2.73438 11.8516 2.22656 10.2109C2.5 10.25 2.73438 10.2891 3.00781 10.2891C3.35938 10.2891 3.75 10.2109 4.0625 10.1328C2.1875 9.74219 0.78125 8.10156 0.78125 6.10938V6.07031C1.32812 6.38281 1.99219 6.53906 2.65625 6.57812C1.52344 5.83594 0.820312 4.58594 0.820312 3.17969C0.820312 2.39844 1.01562 1.69531 1.36719 1.10938C3.39844 3.57031 6.44531 5.21094 9.84375 5.40625C9.76562 5.09375 9.72656 4.78125 9.72656 4.46875C9.72656 2.20312 11.5625 0.367188 13.8281 0.367188C15 0.367188 16.0547 0.835938 16.8359 1.65625C17.7344 1.46094 18.6328 1.10938 19.4141 0.640625C19.1016 1.61719 18.4766 2.39844 17.6172 2.90625C18.4375 2.82812 19.2578 2.59375 19.9609 2.28125C19.4141 3.10156 18.7109 3.80469 17.9297 4.39062Z" fill="#8758FF"/>
</svg>
