<svg width="57" height="46" viewBox="0 0 57 46" fill="none" xmlns="http://www.w3.org/2000/svg">
<path d="M55.043 23.9844L44.9355 20.0293C44.584 19.8535 43.793 19.6777 42.9141 20.0293L32.8066 23.9844C31.9277 24.3359 31.3125 25.2148 31.3125 26.0938C31.3125 35.8496 37.2891 42.6172 42.9141 44.8145C43.793 45.166 44.4961 44.9902 44.9355 44.8145C49.418 43.1445 56.625 37.0801 56.625 26.0938C56.625 25.2148 56.0098 24.3359 55.043 23.9844ZM43.9688 40.7715V24.1602L52.3184 27.4121C51.791 35.0586 46.957 39.2773 43.9688 40.7715ZM20.0625 22.5781C26.2148 22.5781 31.3125 17.5684 31.3125 11.3281C31.3125 5.17578 26.2148 0.078125 20.0625 0.078125C13.8223 0.078125 8.8125 5.17578 8.8125 11.3281C8.8125 17.5684 13.8223 22.5781 20.0625 22.5781ZM28.5 27.4121C27.1816 27.0605 25.8633 26.7969 24.457 26.7969H15.5801C7.14258 26.7969 0.375 33.6523 0.375 42.0898C0.375 43.7598 1.69336 45.0781 3.36328 45.0781H36.6738C36.9375 45.0781 37.2012 44.9902 37.4648 44.9902C32.8066 41.3867 28.8516 35.3223 28.5 27.4121Z" fill="#8758FF"/>
</svg>
