<svg width="51" height="40" viewBox="0 0 51 40" fill="none" xmlns="http://www.w3.org/2000/svg">
<path d="M41.4961 18.0156C41.4961 18.0156 42.1113 21.2676 42.2871 21.9707H39.3867C39.6504 21.1797 40.793 18.1035 40.793 18.1035C40.7051 18.1914 41.0566 17.3125 41.2324 16.7852L41.4961 18.0156ZM50.8125 4.65625V35.5938C50.8125 37.9668 48.8789 39.8125 46.5938 39.8125H4.40625C2.0332 39.8125 0.1875 37.9668 0.1875 35.5938V4.65625C0.1875 2.37109 2.0332 0.4375 4.40625 0.4375H46.5938C48.8789 0.4375 50.8125 2.37109 50.8125 4.65625ZM13.5469 26.8047L19.084 13.0938H15.3926L11.877 22.4102L11.5254 20.5645L10.2949 14.3242C10.1191 13.4453 9.50391 13.1816 8.71289 13.0938H3V13.4453C4.31836 13.7969 5.54883 14.2363 6.69141 14.9395L9.85547 26.8047H13.5469ZM21.8086 26.8047L24.0938 13.0938H20.4902L18.293 26.8047H21.8086ZM34.1133 22.3223C34.2012 20.7402 33.2344 19.5977 31.2129 18.6309C29.9824 18.0156 29.1914 17.5762 29.1914 16.9609C29.1914 16.3457 29.8066 15.7305 31.2129 15.7305C32.3555 15.7305 33.2344 15.9941 33.8496 16.2578L34.2012 16.4336L34.6406 13.4453C33.9375 13.1816 32.8828 12.918 31.4766 12.918C27.9609 12.918 25.5 14.7637 25.5 17.4004C25.5 19.334 27.2578 20.4766 28.5762 21.0918C29.9824 21.7949 30.4219 22.2344 30.4219 22.7617C30.4219 23.7285 29.3672 24.168 28.3125 24.168C26.9062 24.168 26.2031 23.9043 24.9727 23.377L24.5332 23.2012L24.0938 26.2773C24.8848 26.6289 26.3789 26.9805 27.9609 26.9805C31.7402 26.9805 34.1133 25.1348 34.1133 22.3223ZM46.5938 26.8047L43.6934 13.0938H40.9688C40.0898 13.0938 39.4746 13.3574 39.123 14.2363L33.8496 26.8047H37.6289C37.6289 26.8047 38.1562 25.1348 38.332 24.7832H42.9023C42.9902 25.2227 43.2539 26.8047 43.2539 26.8047H46.5938Z" fill="#8758FF"/>
</svg>
