<svg width="15" height="16" viewBox="0 0 15 16" fill="none" xmlns="http://www.w3.org/2000/svg">
<path d="M12.6172 3.00391C11.2559 1.60938 9.39648 0.8125 7.4043 0.8125C3.35352 0.8125 0.0332031 4.13281 0.0332031 8.18359C0.0332031 9.51172 0.398438 10.7734 1.0293 11.8691L0 15.6875L3.88477 14.6914C4.98047 15.2559 6.17578 15.5879 7.4043 15.5879C11.4883 15.5879 14.875 12.2676 14.875 8.2168C14.875 6.22461 14.0117 4.39844 12.6172 3.00391ZM7.4043 14.3262C6.30859 14.3262 5.24609 14.0273 4.2832 13.4629L4.08398 13.3301L1.75977 13.9609L2.39062 11.7031L2.22461 11.4707C1.62695 10.4746 1.29492 9.3457 1.29492 8.18359C1.29492 4.83008 4.05078 2.07422 7.4375 2.07422C9.06445 2.07422 10.5918 2.70508 11.7539 3.86719C12.916 5.0293 13.6133 6.55664 13.6133 8.2168C13.6133 11.5703 10.791 14.3262 7.4043 14.3262ZM10.791 9.74414C10.5918 9.64453 9.69531 9.21289 9.5293 9.14648C9.36328 9.08008 9.23047 9.04688 9.09766 9.24609C8.99805 9.41211 8.63281 9.84375 8.5332 9.97656C8.40039 10.0762 8.30078 10.1094 8.13477 10.0098C7.03906 9.47852 6.3418 9.04688 5.61133 7.81836C5.41211 7.48633 5.81055 7.51953 6.14258 6.82227C6.20898 6.68945 6.17578 6.58984 6.14258 6.49023C6.10938 6.39062 5.71094 5.49414 5.57812 5.12891C5.41211 4.76367 5.2793 4.79688 5.14648 4.79688C5.04688 4.79688 4.91406 4.79688 4.81445 4.79688C4.68164 4.79688 4.48242 4.83008 4.31641 5.0293C4.15039 5.22852 3.68555 5.66016 3.68555 6.55664C3.68555 7.48633 4.31641 8.34961 4.41602 8.48242C4.51562 8.58203 5.71094 10.4414 7.57031 11.2383C8.73242 11.7695 9.19727 11.8027 9.79492 11.7031C10.127 11.6699 10.8574 11.2715 11.0234 10.8398C11.1895 10.4082 11.1895 10.043 11.123 9.97656C11.0898 9.87695 10.957 9.84375 10.791 9.74414Z" fill="white"/>
</svg>
