<svg width="24" height="17" viewBox="0 0 24 17" fill="none" xmlns="http://www.w3.org/2000/svg">
<path opacity="0.7" d="M21.4211 0.78125H2.22977C1.80562 0.78125 1.39883 0.945682 1.09891 1.23837C0.798988 1.53106 0.630493 1.92804 0.630493 2.34196V14.8277C0.630493 15.2416 0.798988 15.6386 1.09891 15.9313C1.39883 16.224 1.80562 16.3884 2.22977 16.3884H21.4211C21.8453 16.3884 22.252 16.224 22.552 15.9313C22.8519 15.6386 23.0204 15.2416 23.0204 14.8277V2.34196C23.0204 1.92804 22.8519 1.53106 22.552 1.23837C22.252 0.945682 21.8453 0.78125 21.4211 0.78125ZM19.6619 2.34196L11.8254 7.63279L3.98898 2.34196H19.6619ZM2.22977 14.8277V3.05209L11.3696 9.22471C11.5035 9.31533 11.6625 9.3639 11.8254 9.3639C11.9884 9.3639 12.1474 9.31533 12.2812 9.22471L21.4211 3.05209V14.8277H2.22977Z" fill="none"/>
</svg>
